<svg xmlns="http://www.w3.org/2000/svg" width="329" height="280" fill="none" viewBox="0 0 329 280"><path fill="#fff" d="m97 132.5 52 28.5v62c1.833 3.5 7.3 10.5 14.5 10.5s12.667-7 14.5-10.5c-.333-23.333-.8-71.7 0-78.5.8-6.8-5.333-13.167-8.5-15.5l-32-17 32-30c5.333 8.5 21.5 26 22.5 27s4.5 3 8 3h46c3.667-.833 11.2-4.2 12-11 .8-6.8-9.167-11.167-13.5-11h-40L173 46c-2.167-2.167-9.2-8-16-8-6.8 0-12.833 5.833-15.5 8l-47 46.5c-2 .167-14.8 14.2-10 25 4.8 10.8 10.333 14.5 12.5 15Z"/><path fill="#fff" fill-rule="evenodd" d="M67 280c37.003 0 67-29.997 67-67s-29.997-67-67-67-67 29.997-67 67 29.997 67 67 67Zm0-15c28.719 0 52-23.281 52-52s-23.281-52-52-52-52 23.281-52 52 23.281 52 52 52ZM262 280c37.003 0 67-29.997 67-67s-29.997-67-67-67-67 29.997-67 67 29.997 67 67 67Zm0-15c28.719 0 52-23.281 52-52s-23.281-52-52-52-52 23.281-52 52 23.281 52 52 52Z" clip-rule="evenodd"/><path fill="#fff" d="M220 24.5c0 13.531-10.969 24.5-24.5 24.5S171 38.031 171 24.5 181.969 0 195.5 0 220 10.969 220 24.5Z"/></svg>