<svg xmlns="http://www.w3.org/2000/svg" width="50" height="50" fill="none" viewBox="0 0 50 50"><circle cx="25" cy="25" r="24.5" fill="#0B63EC" stroke="#fff"/><path fill="#fff" d="m16.748 21.056 6.31 3.459v7.524c.223.425.886 1.274 1.76 1.274s1.537-.85 1.76-1.274c-.04-2.832-.097-8.702 0-9.527.097-.825-.648-1.598-1.032-1.881l-3.883-2.063 3.883-3.64c.647 1.03 2.61 3.154 2.73 3.276.122.121.547.364.972.364h5.582c.445-.101 1.36-.51 1.456-1.335.097-.825-1.112-1.355-1.638-1.335h-4.854l-3.823-5.34c-.263-.263-1.117-.97-1.942-.97s-1.557.707-1.88.97l-5.705 5.643c-.242.02-1.796 1.724-1.213 3.034.582 1.311 1.254 1.76 1.517 1.82Z"/><path fill="#fff" fill-rule="evenodd" d="M13.107 38.956a8.131 8.131 0 1 0 0-16.262 8.131 8.131 0 0 0 0 16.262Zm0-1.82a6.31 6.31 0 1 0 0-12.622 6.31 6.31 0 0 0 0 12.622ZM36.772 38.956a8.131 8.131 0 1 0 0-16.262 8.131 8.131 0 0 0 0 16.262Zm0-1.82a6.31 6.31 0 1 0 0-12.622 6.31 6.31 0 0 0 0 12.622Z" clip-rule="evenodd"/><path fill="#fff" d="M31.675 7.949a2.973 2.973 0 1 1-5.947 0 2.973 2.973 0 0 1 5.947 0Z"/></svg>