<svg xmlns="http://www.w3.org/2000/svg" width="50" height="50" fill="none" viewBox="0 0 50 50"><circle cx="25" cy="25" r="24.5" fill="#15803d" stroke="#fff"/><path fill="#fff" d="M21.525 12.09v1.949H20.44l-1.468 1.887v1.28l-.957 1.034-.639 2.619c.681.69 2.107 2.156 2.362 2.497.319.426-.766 6.333-.766 7.064 0 .584-2 5.643-3 8.1l.255.973s-1.575 2.079-.638 2.254c2.936.548 5.936 0 5.936 0s.496-1.412-.255-1.584c-1.596-.365-2.298-.67-2.298-.67v-.426h.766l3.447-9.378c.106-.223.625-.097 1.85 2.192 1.226 2.29 2.639 5.542 3.192 6.882l.383.73v2.254h2.106l3.766-1.34s.51-.914 0-1.34c-.51-.426-.894 0-.894 0h-2.297v-1.461l-5.936-14.677v-1.705l1.978.488.894-2.62 3.064.61c-.192-.04-.396-.597.319-2.497.715-1.9 1.617-2.66 1.978-2.801l-2.872-1.279c-.106-.183-.677-.06-2.106 1.888-1.43 1.949-2.085 3.532-2.234 4.08l-1.34-.853v-2.314h1.34l-1.724-1.887c-.255-.244-.536-.768.383-.914.92-.146 1.277-1.076 1.34-1.522l1.852.487.255-.366-1.723-1.583v-1.4l-2.49-.731-1.404 1.4H19.93v.427l2.426.974v1.279h-.83Z"/></svg>