<svg xmlns="http://www.w3.org/2000/svg" width="161" height="280" fill="none" viewBox="0 0 161 280"><path fill="#fff" d="M52.033 33.62v16.057h-8.941L30.995 65.233v10.538l-7.889 8.53-5.259 21.577c5.61 5.687 17.356 17.764 19.46 20.574 2.63 3.512-6.312 52.186-6.312 58.208 0 4.817-16.479 46.499-24.719 66.738l2.104 8.029s-12.985 17.124-5.26 18.566c24.194 4.516 48.913 0 48.913 0s4.087-11.629-2.104-13.047c-13.148-3.011-18.934-5.519-18.934-5.519v-3.513h6.311l28.4-77.276c.877-1.84 5.155-.803 15.253 18.065 10.098 18.867 21.739 45.663 26.297 56.702l3.155 6.022v18.566h17.356l31.03-11.04s4.207-7.526 0-11.039-7.363 0-7.363 0H132.5v-12.043L83.589 122.939v-14.05l16.304 4.014 7.363-21.577 25.244 5.018c-1.577-.334-3.26-4.917 2.63-20.573 5.891-15.656 13.324-21.912 16.304-23.083L127.767 42.15c-.877-1.505-5.575-.501-17.356 15.556-11.78 16.057-17.18 29.104-18.407 33.62l-11.045-7.025V65.233h11.045l-14.2-15.556c-2.104-2.007-4.419-6.322 3.155-7.526 7.573-1.205 10.519-8.866 11.045-12.545l15.252 4.014 2.103-3.01-14.2-13.047V6.022L74.648 0l-11.57 11.541H38.883v3.513l19.986 8.028V33.62h-6.837Z"/></svg>